<svg xmlns="http://www.w3.org/2000/svg" width="588.628" height="1282.656" viewBox="0 0 588.628 1282.656"><g><path fill="#64DD00" d="M477.998 622.207c1.17-.53-7.83 9.92-40.16 26.17-2.5 1.25-6.88 1.38-5.89.55 2.54-2.13 37.279-22.88 38.199-23.6.841-.65 6.871-2.68 7.851-3.12z"/><path d="M535.588 564.587c.25-12.43-1.65-24.92-2.63-37.38-.08-.97-.9-1.89-1.6-3.31-.881 1.08-1.641 1.61-1.82 2.3-2.05 7.64-3.87 15.34-6.04 22.94-3.01 10.48-5.25 21.35-9.7 31.2-4.439 9.87-10.54 19.19-17.12 27.83-6.88 9.02-14.25 18.15-23.13 25-10.15 7.84-22.17 13.26-33.43 19.64-1.66.95-3.351 1.87-5.03 2.79-2.16 1.17-4.32 2.34-6.479 3.5-2.16 1.16-10.141 5.09-10.341 5.49l-.04.21c.03.44.69.51 1 .48.46-.04 15.04-2.45 18.04-2.931 15.53-2.529 31.601-5.22 46.261-11.17 2.279-.92 4.52-1.95 6.68-3.13 6.75-3.68 11.79-9.1 17.229-14.41 19.16-18.68 27.41-42.14 28.131-68.22v-.1l.01-.34v-.11c.02-.37.03-.69.03-.96l-.021.681zm-300.53-494.02c-4.86-10.26-6-35.19.14-44.69 1.04-1.61-.95-3.66-2.13-2.12-17.62 23.25-7.51 40.65-7.38 40.84 14.88 21.28 36.63 56.9 42.13 102.03.46 3.77 0 65.25-27.72 177.78-4.71 19.13-10.06 38.11-14.41 57.33-2 8.85-2.47 18.07-3.32 27.15-.03.29.01.58.08.88l-.03.21c-.06 2-.01 3.97.06 5.97-.02.27-.01.52.03.97l.06.2-.03.11c-.05 1.13-.08 1.94.58 2.84.27.37.67.59 1.13.46 2.2-.62 4.28-13.99 5.27-17.02.17-.16 30.38-129.06 33.3-141.53 1.49-6.41 7.01-35.65 7.01-36 0 0 5.21-40.43 5.35-45.59.16-6.18.62-13.69.64-20.45 1.5-15.94-15.55-61.15-15.76-61.62-4.01-8.85-21.12-39.56-25-47.75zm50.95-32.19c-.02.61-.28.87-.72 1.26-.18.16-.63.59-.91.53-.24-.05-1.59-1.81-2.01-2.3-.41-.48-1.08-2.47-1.25-2.89-.41-1.02-2.49-1.76-3.37-.96-.52.48-1.01 1.01-1.37 1.63-.37.63-.39 1.21-.53 1.9-.05.22-.05.45-.04.67.04.46.21.9.45 1.3.77 1.25 2.18 2.07 3.52 2.6 1.3.52 2.81.89 4.23.69 14-1.94 12.48-13.44 12.25-15.78-1.32-13.67-14.72-20.42-27.42-19.25-7.92.73-15.58-1.33-27.12 17.08-3.41 5.43-6.17 11.62-7.17 17.78-2.3 14.26 2.14 27 10.69 38.73 9 12.34 16.66 25.61 22.16 39.94 4.48 11.66 9.72 23.23 12.34 35.34 2.57 11.84 3.07 48.24-.84 80.94-1.18 9.85-2.88 19.67-5.19 29.29-4.11 17.17-8.95 34.16-13.4 51.25-3.47 13.36-6.77 26.75-10.21 40.12-3.05 11.84-6.23 23.65-9.24 35.51-.85 3.34-1.29 6.79-.87 10.67 3.28-4.58 6.24-9.42 9.89-13.68 9.4-10.98 18.5-22.32 28.85-32.35 10.68-10.34 22.65-19.35 34.13-28.87 13.92-11.54 27.81-23.13 41.9-34.47 8.8-7.08 18.36-13.27 26.83-20.7 13.19-11.55 25.82-23.76 38.56-35.82 9-8.53 70.15-68.51 52.75-105.83-3.27-7-7.06-11.37-14.17-15.33-19.06-10.62-28.96-.09-33.58 9.19-1.5 3.02-1.449 6.73-.729 9.95.66 2.92 2.16 6.85 4.89 8.44 2.44 1.41 5.801 2.22 8.58 1.7 1.78-.33 4.13-1.16 4.44-3.27.17-1.18.02-3.26-1.7-2.75-.94.27-1.79 3.23-3.12 1.91-.61-.61-.63-1.8-.43-2.58.39-1.47 2.29-2.64 3.68-2.94 1.771-.39 3.55.73 4.75 1.94.51.51.811 1.89 1.01 2.58.23.8.351 1.64.311 2.48-.13 2.54-1.641 5.33-3.37 7.16-2.09 2.22-5.41 2.81-8.36 2.46-10.29-1.22-15.609-4.94-18.279-14.95-.82-3.07 2.119-27.34 23.189-33.75 3.311-1.01 6.43-.78 8.25-.44 39.25 7.48 39.88 28.34 41.311 35.04.38 1.78 17.5 66.08-113.421 166.42-6.989 5.36-82.14 58.77-99.39 83.23-8.57 12.15-19.04 27.81-24.75 39.83-4.49 9.46-7.7 12.12-10.5 24.25-2.14 9.27-2.5 24.28-1.25 33.7 1.4 10.67 5.2 21.14 8.93 31.35 1.69 4.64 5.61 8.52 8.72 12.59 12.84 16.78 28.83 30.43 45.04 43.66 13.49 11.01 28.1 20.64 41.96 31.21 6.319 4.82 12.37 10.1 17.93 15.78 14.14 14.43 27.94 29.21 41.89 43.84.66.68 1.511 1.18 3.261 2.51 1.76-9.49 3.649-18.17 4.92-26.94 1.72-11.84 2.569-23.81 7.63-34.93 7.649-16.82 20.28-28.93 35.899-38.2 13.44-7.97 26.971-15.69 38.681-26.32 14-12.71 25.029-27.51 33.67-44.2 10.53-20.34 24.05-38.15 43.13-51.27 3.13-2.15 6.25-4.46 9.69-5.97 1.869-.83 4.399-.15 6.63-.15l.39 1.89c-1.52 1.06-2.9 2.51-4.58 3.12-14.82 5.38-25.34 15.91-34.31 28.33-8.78 12.16-9.17 26.14-8.12 40.2.71 9.42 3.24 18.73 3.51 28.13.42 14.56.85 29.31-.96 43.69-3.12 24.8-15.22 45.32-34.65 61.15-9.1 7.41-19.72 12.439-31.109 14.939-11.91 2.61-24.12 3.8-36.16 5.811-8.8 1.47-22.04.819-29.62 6.51-2.95 2.21 1 5.52 2.95 8.16 9.56 12.939 40.649 59 32.34 151.46-1.15 12.88-4.98 25.75-9.13 38.18-6.12 18.33-13.43 32.42-20.45 48.5-17.84 40.83-50.97 67.57-62.08 114.66-3.17 13.42 2.101 42.38 2.95 43.96 17.63 32.63 67.38 39.38 64.55 117.79-1.24 34.41-44.86 108.79-202.25 79.59-34.04-6.32-167.94-71.81-202.17-176.53-22.01-67.35-31.61-119.71 6.29-185.189 6.24-10.771 14.75-20.44 23.35-29.561 13.27-14.1 29.04-25.06 46.83-32.989 8.24-3.681 16.02-8.45 24.44-11.591 9.04-3.38 18.55-5.569 27.92-8.039 14.71-3.86 29.75-5.471 44.85-3.801 18.01 2.011 33.8 9.24 46.11 22.98 6.71 7.479 13.54 14.87 19.74 22.76 8.69 11.07 13.97 24.021 18.91 37.08.59 1.55 1.31 3.05 2.03 4.54 3.91 8.08 4.08 8.51 12.57 5.28 19.6-7.471 37.19-18.13 51.89-33.4 16.61-17.26 28.25-37.57 37.48-59.41 5.46-12.939 6.689-26.66 6.95-40.55.069-4.17-1.73-6.06-5.34-7.88-7.971-4.01-15.41-1.94-22.961.78-10.46 3.779-21.079 7.149-31.3 11.489-9.56 4.07-57.53 8.521-94.55-21.67-9.4-7.67-15.72-18.26-19.68-29.71-4.52-13.109-8-26.58-12.02-39.87-5.16-17.09-7.1-35.189-16.02-51.08-2.93-5.199-6.31-10.149-9.3-15.31-.73-1.26-.77-2.92-1.13-4.4 1.67.15 3.56-.17 4.95.53 7.13 3.601 9.53 11.22 14.08 17.04 13.03 16.63 28.52 29.76 48.95 36.95 17.29 6.1 35.02 7.35 53 8.03 20.19.76 37.96 7.859 54.49 19.5 14.5 10.199 24.39 23.659 32.34 39 .37.72.86 1.38 1.91 3.05.34-2.08.83-3.26.66-4.33-3.41-21.58-11.33-41.41-25.181-58.29-11.68-14.25-24.689-27.39-36.79-41.3-20.29-23.34-40.729-46.59-60.3-70.54-8.68-10.62-16.14-22.45-22.79-34.49-8.57-15.53-15.92-31.75-23.53-47.8-4.81-10.13-5.14-21.34-5.48-32.16-.75-24.14 3.39-47.89 7.58-71.59 4.47-25.27 11.48-49.85 19.05-74.33 2.19-7.11 11.48-46.01 13.38-58.27 3.12-20.13 5.31-40.42 7.12-60.71 1.83-20.45.49-40.98-4.19-60.88-16.33-69.59-51.7-76.03-70.95-80.1-37.88-8.02-52.74 6.22-53.11 7.21-1.6 2.33-1.98 4.83 1.29 6.85.1.07.2.09.3.11.19 1.09-4.11 3.49-5.26 2.41-5.85-5.48-3.43-13.27 3.28-18.36 11.22-8.53 25.4-12.43 39.35-12.68 0 0 29.63 2.16 46.5 12.74 3.86 2.42 1.64-1.77 1.51-2.09-2.24-5.24 4.17-25.6 10.65-33.67 19.22-23.9 42.39-22.41 49.67-21.2 3.75.63 24.88 8.96 22.88 31.5-.24 2.67-1.32 4.49-2.78 6.6-2.22 3.22-3.52 5.19-7.37 6.58-2.7.98-5.14 1.62-8.04 1.75-2.31.1-8.1-.93-9.52-3.06-.12-.18-.26-.32-.42-.43-4.79-12.23 5.08-13.92 7.93-13.56 1.73.21 2.86 1.61 3.46 3.14.29.72.34 1.47.54 2.22.278 1.041.488 1.981.448 3.071zm87.59 862.7c2.82 2.84 9.511 10.24 9.53 10.25.48-.65.89-1.16 1.24-1.51-.29-.33-7.05-8.16-9.51-10.551-.4.611-.84 1.211-1.26 1.811zm-1.66 2.29c-1.119 1.49-2.29 2.939-3.52 4.359.979 1.7 7.35 10.4 9.08 12.65 1.27-2.22 2.43-4.16 3.439-5.78-1.309-2.689-6.949-9.509-8.999-11.229zm106.06-281.16c-.98.44-7.01 2.47-7.851 3.12-.92.72-35.659 21.47-38.199 23.6-.99.83 3.39.7 5.89-.55 32.33-16.25 41.33-26.7 40.16-26.17zm47.76-103.98c.4-1.2.23-2.6.311-3.61-8.04 9.12-14.921 19.27-24.011 26.72-15.72 12.89-33.04 23.81-49.25 36.14-7.449 5.67-15.38 11.72-20.41 19.37-.8 1.21-1.52 2.48-2.159 3.78-2.32 4.72-3.67 9.86-4.591 15.01-.97 5.4-1.46 10.88-1.89 16.351-.21 2.659-.41 5.319-.63 7.979-.13 1.57-.24 3.141-.46 4.69-.06.45-2.18 7.06-1.76 6.56 10.34-12.22 38.09-26.39 50.529-35.53 8.061-5.92 13.03-10.17 19.381-17.75 8.13-9.71 13.71-21.64 18.859-33.19 6.661-14.93 10.881-30.95 16.081-46.52zm-197.94-183.73c173.75-122.45 156.17-183.62 153.25-183.8-3.86-.24 28.25 37.93-156.24 176.12-42.03 31.49-66.36 53.8-86.82 100.19-2.82 6.39-14.38 39.75-11.68 52.18.17.8.79 10.64 1.71 14.64 1.87 8.14 2.98 16.67 6.28 24.22 7.84 18 17.76 34.96 29.83 50.5 15.22 19.57 31.08 38.56 49.16 55.66 11.6 10.97 22.68 22.52 33.69 34.1 12.53 13.17 22.979 27.98 32.07 43.67 6.47 11.15 12.659 22.511 15.159 35.42 1.42 7.32 3.101 14.58 4.58 21.891.641 3.17 1.9 29.83-1.279 39.71-1.4 4.35-1.561 9.08-2.78 13.5-7.47 27.03-18.49 52.28-36.61 74.12-15.189 18.33-31.49 35.189-54.05 44.45-4.43 1.819-9.21 2.819-13.69 4.54-1.17.449-2.75 2.46-2.52 3.34.35 1.37 1.37 2.92 2.57 3.79 6.83-1.301 17.23-3.811 18.39-4.17 9.17-2.851 8.58-2.73 17.06-7.011 14.58-7.359 28.761-15.51 39.641-27.83 1.53-1.88 7.939-10.31 7.939-10.31s17.04 15.18 17.721 15.979c-6.19 3.921-53.46 99.301-55.851 120.271-1.34 11.68 1.721 29.35 12.11 37.7-.41-1.74-1.01-3.471-1.19-5.23-.72-7.37 1.87-44.62 10.9-58.13 3.49-6.899 85.84-134.17 78.31-196.2-1.58-102.939-34.109-126.529-40.71-134.68-10.93-13.51-22.609-26.62-35.34-38.43-16.649-15.47-34.02-30.311-52.2-43.94-17.72-13.29-36.78-25.42-49.27-43.84-32.7-48.22-25.91-76.03-25.99-77.43-.76-14.89 26.44-70.32 37.29-80.79 1.18-1.14 1.48-1.91 2.03-2.75.42-.65 1.16-1.43 1.53-2 1.01-1.54 2.19-2.93 4.04-4.98 5.09-5.65 11.04-11.45 15.27-15.52 2.06-1.98 33.35-27.3 35.69-28.95zm50.35 909.5c58.71-36.22 27.63-90.71 27.63-90.71-5.36-12.76-13.07-24.76-23.24-34.23-6.859-6.39-15.35-12.08-23.88-15.97-2.49-1.14-6.52-1.69-9.34-.08-22.479 12.84-37.25 40-101.14 22.05-12.64-3.55-23.14-11.59-32.07-20.79-14.13-14.58-23.16-32.71-30.77-51.29-3.3-8.04-4.54-16.989-6.13-25.63-3.96-21.51-.01-42.09 8.78-61.75 4.25-9.489 12.19-16.189 20.39-22.38 4.22-3.189 8.17-6.859 12.73-9.49 11.05-6.369 23.09-9.54 35.89-10.38 8.57-.56 9.31-2.14 6.91-10.5-3.06-10.67-5.83-21.39-13.54-30.09-6.06-6.83-11.22-14.47-17.35-21.229-3.26-3.601-7.93-5.891-11.65-9.141-7.71-6.729-17.08-9.55-26.78-10.42-9.91-.89-19.99-.71-29.93-.02-6.67.46-13.25 2.52-19.8 4.109-2.1.511-11.6 3.511-14.07 4.62-7.26 3.28-14.37 6.92-21.51 10.46-7.66 3.8-41.76 25.66-46.33 31.29-80.64 99.29-45.57 215.26 37.12 295.83 72.45 70.581 189.75 110.251 278.08 55.741zm8.6-472.2c.4-.85-.72-1.9-1.17-2.51-.989-1.3-2-2.57-3.06-3.8-.97-1.11-1.97-2.19-3.03-3.2-.979-.94-2.01-1.83-3.1-2.641-1.05-.77-2.15-1.479-3.29-2.1-1.16-.62-2.36-1.16-3.59-1.6-1.311-.48-2.65-.86-4-1.15-1.49-.33-3-.56-4.521-.729-1.71-.19-3.43-.29-5.149-.341-.95-.029-1.9-.04-2.851-.04-.99 0-2.02.101-3.01.04-10.04-.569-20.15-.199-30.18-.93-25.75-1.86-48.59-11.43-68.95-27.14-16.52-12.75-32.35-26.17-43.12-44.49-.2-.32-.8-.41-1.76-.88 0 1.439-.17 2.53.02 3.55 3.12 17.05 7.29 33.86 15.62 49.17 4.66 8.55 8.41 18.62 16.19 24.37 57.25 42.25 86.73 23.3 100.08 18.96 1.74-.57 3.49-1.11 5.25-1.61 2.061-.59 4.141-1.13 6.23-1.619 2.17-.5 4.34-.95 6.53-1.32 2.229-.391 4.47-.69 6.72-.91 2.26-.23 4.53-.36 6.8-.38 2.271-.03 4.53.05 6.79.26 2.24.21 4.47.55 6.67 1.04.75.16 1.46.35 2.19.6.601.2 1.401.01 1.691-.6zm-9.7-23.42c.92.3-14.25-33.72-65.13-48.59-9.73-2.84-22.39-1.34-34.87-2.41-9.02-.77-22.99-3.86-28.63-5.88-10.12-3.62-16.03-5.49-24.81-10.87-9.26-5.67-15.37-14.38-20.81-15-1.28-.14 19.1 31.09 51.41 49.38 14.15 8.01 28.91 15.18 58.51 18.36 58.76 6.32 43.86 8.39 64.33 15.01zm-7.3 186.22c1.511-2.87 2.95-5.58 4.32-8.09-.21-.3-9-13.979-9.18-14.5-.04-.1-.09-.18-.15-.26-1.67 1.74-3.42 3.42-5.22 5.05.68 1.2 9.95 17.79 10.23 17.8zm-7.6 14.94c1.58-3.2 3.15-6.3 4.68-9.28-.1-.08-9.979-19.8-10.189-20.38-.05-.13-.13-.26-.221-.37-2.31 1.95-4.689 3.82-7.119 5.61 2.049 4.06 12.799 24.34 12.849 24.42zm-45.83-203.53c22.521 2.07 39.24 2.351 47.66 2.16-8.05-1.9-11.811-7.21-48-8.16-34.91-.92-51.58-16.13-63.18-18.5-3.17-.65 38.1 22.16 63.52 24.5zm38.62 218.34c1.57-3.31 3.16-6.59 4.729-9.8-2.869-6.25-12.93-22.2-13.84-26.96-1.3.89-2.6 1.76-3.92 2.61 1.601 8.689 10.98 32.34 12.71 33.89.101.1.211.18.321.26zm-8.29 17.86c1.74-3.86 3.54-7.771 5.36-11.67-10.261-13.07-13.78-34.82-15.07-37.24-2.95 1.76-5.9 3.39-8.811 4.9-.02.88.36 1.81.641 2.779.08.271 5.31 23.401 17.88 41.231zm-2.54 106c.47-1.97-3.5-4.99-5.43-7.561-8.391-11.13-17.03-22.079-25.08-33.449-11.92-16.84-19.28-35.82-25.16-55.49-5.37-17.98-11.3-35.79-17.14-53.63-.99-3.03-2.56-6.101-7.04-5.15-8.85 1.95-17.85 3.38-26.5 5.98-94.94 45.35-16.54 153.34-3.23 163.72 54.62 35.55 95.95.59 102.74-5.07 2.95-2.46 6.01-5.86 6.84-9.35zm-.15-99.95c-.05-.14-.109-.26-.21-.34-8.04-6.01-18.31-41.17-21.52-46.95-2.8 1.15-5.69 2.141-8.61 3.03.86 2.24 17.37 45.37 17.91 46.54.771 1.63 4.97 9.46 6.44 11.81 1.82-4.46 3.84-9.201 5.99-14.09zm-12.3 30.97c.87-2.649 1.92-5.6 3.12-8.779-9.78-14.471-23.67-56.83-27.46-64.62-1.53.43-3.06.859-4.58 1.3 1.7 8.349 15.29 53.909 28.92 72.099zm-2.45 28.04c-.72-5.409-.739-10.84-.399-15.3-12.62-24.59-20.11-42.31-24.95-58.64l-6.94-24.45c-1.79.53-4.27 1.24-6.5 1.76-.06 1.811 1.18 6.271 1.62 7.86.2 1.53 8.4 24.99 11.35 35.29 4.38 15.25 7.98 25.91 14.65 36.8.91 1.49 1.83 2.98 2.771 4.46 1.66 2.61 3.319 5.21 4.979 7.83.479.76 2.139 2.91 3.419 4.39zm-107.97-978.46c1.04.77 1.91-.83 1.01-1.72-24.95-24.59-66.08-16.18-66.24-16.23-1.25-.35-1.82 1.87-.53 1.93 48.17 2.26 64.53 15.12 65.76 16.02z"/><linearGradient id="a" gradientUnits="userSpaceOnUse" x1="418.226" y1="594.59" x2="535.61" y2="594.59"><stop offset="0" stop-color="#5E9400"/><stop offset="1" stop-color="#132A00"/></linearGradient><path fill="url(#a)" d="M532.958 527.207c.979 12.46 2.88 24.95 2.63 37.38l-.01.28v.11l-.01.34v.1c-.721 26.08-8.971 49.54-28.131 68.22-5.439 5.311-10.479 10.73-17.229 14.41-2.16 1.18-4.4 2.21-6.68 3.13-14.66 5.95-30.73 8.641-46.261 11.17-3 .48-17.58 2.891-18.04 2.931-.31.029-.97-.04-1-.48l.04-.21c.2-.4 8.181-4.33 10.341-5.49 2.159-1.16 4.319-2.33 6.479-3.5 1.68-.92 3.37-1.84 5.03-2.79 11.26-6.38 23.279-11.8 33.43-19.64 8.88-6.85 16.25-15.98 23.13-25 6.58-8.64 12.681-17.96 17.12-27.83 4.45-9.85 6.69-20.72 9.7-31.2 2.17-7.6 3.99-15.3 6.04-22.94.18-.69.939-1.22 1.82-2.3.701 1.419 1.521 2.339 1.601 3.309z"/><linearGradient id="b" gradientUnits="userSpaceOnUse" x1="420.853" y1="582.931" x2="526.068" y2="582.931"><stop offset="0" stop-color="#5E9400"/><stop offset="1" stop-color="#132A00"/></linearGradient><path fill="url(#b)" d="M526.068 514.617c-.08 1.01.09 2.41-.311 3.61-5.2 15.57-9.42 31.59-16.08 46.52-5.149 11.55-10.729 23.48-18.859 33.19-6.351 7.58-11.32 11.83-19.381 17.75-12.439 9.14-40.189 23.31-50.529 35.53-.42.5 1.7-6.109 1.76-6.56.22-1.55.33-3.12.46-4.69.22-2.66.42-5.32.63-7.979.43-5.47.92-10.95 1.89-16.351.921-5.15 2.271-10.29 4.591-15.01.64-1.3 1.359-2.57 2.159-3.78 5.03-7.65 12.961-13.7 20.41-19.37 16.21-12.33 33.53-23.25 49.25-36.14 9.089-7.45 15.97-17.6 24.01-26.72z"/><linearGradient id="c" gradientUnits="userSpaceOnUse" x1="225.922" y1="609.031" x2="482.94" y2="609.031"><stop offset="0" stop-color="#5E9400"/><stop offset="1" stop-color="#132A00"/></linearGradient><path fill="url(#c)" d="M481.068 150.697c2.92.18 20.5 61.35-153.25 183.8-2.341 1.65-33.63 26.97-35.69 28.95-4.23 4.07-10.18 9.87-15.27 15.52-1.85 2.05-3.03 3.44-4.04 4.98-.37.57-1.11 1.35-1.53 2-.55.84-.85 1.61-2.03 2.75-10.85 10.47-38.05 65.9-37.29 80.79.08 1.4-6.71 29.21 25.99 77.43 12.49 18.42 31.55 30.55 49.27 43.84 18.18 13.63 35.55 28.47 52.2 43.94 12.73 11.81 24.41 24.92 35.34 38.43 6.601 8.15 39.13 31.74 40.71 134.68 7.53 62.03-74.819 189.301-78.31 196.2-9.03 13.51-11.62 50.76-10.9 58.13.181 1.76.78 3.49 1.19 5.23-10.39-8.351-13.45-26.021-12.11-37.7 2.391-20.97 49.66-116.35 55.851-120.271-.681-.8-17.721-15.979-17.721-15.979s-6.409 8.43-7.939 10.31c-10.88 12.32-25.061 20.471-39.641 27.83-8.479 4.28-7.89 4.16-17.06 7.011-1.16.359-11.56 2.869-18.39 4.17-1.2-.87-2.22-2.42-2.57-3.79-.23-.88 1.35-2.891 2.52-3.34 4.48-1.721 9.26-2.721 13.69-4.54 22.56-9.261 38.86-26.12 54.05-44.45 18.12-21.84 29.141-47.09 36.61-74.12 1.22-4.42 1.38-9.15 2.78-13.5 3.18-9.88 1.92-36.54 1.279-39.71-1.479-7.311-3.16-14.57-4.58-21.891-2.5-12.909-8.689-24.27-15.159-35.42-9.091-15.689-19.54-30.5-32.07-43.67-11.01-11.58-22.09-23.13-33.69-34.1-18.08-17.1-33.94-36.09-49.16-55.66-12.07-15.54-21.99-32.5-29.83-50.5-3.3-7.55-4.41-16.08-6.28-24.22-.92-4-1.54-13.84-1.71-14.64-2.7-12.43 8.86-45.79 11.68-52.18 20.46-46.39 44.79-68.7 86.82-100.19 184.49-138.19 152.38-176.36 156.24-176.12zm-69.28 691.59c.05-1.72-.74-3.46-1.15-5.19-.62.061-1.25.11-1.87.16-1.01 2.23-2.239 4.39-2.979 6.71-5.3 16.49-12.561 31.83-24.99 44.311-.72.72-2.29 2.069-2.29 2.069l14.521 12.67s4.569-8.31 5.63-10.55c7.558-15.9 12.618-32.46 13.128-50.18z"/><path d="M410.638 837.097c.41 1.73 1.2 3.471 1.15 5.19-.51 17.72-5.57 34.28-13.13 50.18-1.061 2.24-5.63 10.55-5.63 10.55l-14.521-12.67s1.57-1.35 2.29-2.069c12.43-12.48 19.69-27.82 24.99-44.311.74-2.32 1.97-4.479 2.979-6.71.622-.05 1.252-.1 1.872-.16zm-9.64 33.42c.11-1.279-1.88-1.399-2-.12l-.01.061-.091.17c-1.909 5.62-11.279 17.09-11.579 17.46-.36.44-.54.91-.591 1.48-.119 1.159.83 2.449 1.61 3.21.2.189.42.26.64.27.181.15.381.29.61.42 2.79 1.62 5.14-3.05 5.98-4.84.909-1.94 4.5-9.63 4.56-11.77 0-.37.7-3.75.71-5.341.071-.33.131-.66.161-1z"/><linearGradient id="d" gradientUnits="userSpaceOnUse" x1="17.374" y1="1055.418" x2="414.018" y2="1055.418"><stop offset="0" stop-color="#FFFA2A"/><stop offset="1" stop-color="#5E5F00"/></linearGradient><path fill="url(#d)" d="M405.798 1153.287s31.08 54.49-27.63 90.71c-88.33 54.51-205.63 14.84-278.08-55.74-82.69-80.57-117.76-196.54-37.12-295.83 4.57-5.63 38.67-27.49 46.33-31.29 7.14-3.54 14.25-7.18 21.51-10.46 2.47-1.109 11.97-4.109 14.07-4.62 6.55-1.59 13.13-3.649 19.8-4.109 9.94-.69 20.02-.87 29.93.02 9.7.87 19.07 3.69 26.78 10.42 3.72 3.25 8.39 5.54 11.65 9.141 6.13 6.76 11.29 14.399 17.35 21.229 7.71 8.7 10.48 19.42 13.54 30.09 2.4 8.36 1.66 9.94-6.91 10.5-12.8.84-24.84 4.011-35.89 10.38-4.56 2.631-8.51 6.301-12.73 9.49-8.2 6.19-16.14 12.891-20.39 22.38-8.79 19.66-12.74 40.24-8.78 61.75 1.59 8.641 2.83 17.59 6.13 25.63 7.61 18.58 16.64 36.71 30.77 51.29 8.93 9.2 19.43 17.24 32.07 20.79 63.89 17.95 78.661-9.21 101.14-22.05 2.82-1.61 6.85-1.06 9.34.08 8.53 3.89 17.021 9.58 23.88 15.97 10.17 9.469 17.88 21.469 23.24 34.229z"/><path fill="#D9582B" d="M398.998 870.396c.12-1.279 2.11-1.159 2 .12-.03.341-.09.67-.16 1-.01 1.591-.71 4.971-.71 5.341-.06 2.14-3.65 9.829-4.56 11.77-.841 1.79-3.19 6.46-5.98 4.84-.229-.13-.43-.27-.61-.42-.22-.01-.439-.08-.64-.27-.78-.761-1.729-2.051-1.61-3.21.051-.57.23-1.04.591-1.48.3-.37 9.67-11.84 11.579-17.46l.091-.17.009-.061z"/><linearGradient id="e" gradientUnits="userSpaceOnUse" x1="205.918" y1="732.308" x2="386.853" y2="732.308"><stop offset="0" stop-color="#5E9400"/><stop offset="1" stop-color="#132A00"/></linearGradient><path fill="url(#e)" d="M385.598 769.287c.45.609 1.57 1.66 1.17 2.51-.29.61-1.09.8-1.689.6-.73-.25-1.44-.439-2.19-.6-2.2-.49-4.43-.83-6.67-1.04-2.26-.21-4.52-.29-6.79-.26-2.27.02-4.54.149-6.8.38-2.25.22-4.49.52-6.72.91-2.19.37-4.36.82-6.53 1.32-2.09.489-4.17 1.029-6.23 1.619-1.76.5-3.51 1.04-5.25 1.61-13.35 4.34-42.83 23.29-100.08-18.96-7.78-5.75-11.53-15.82-16.19-24.37-8.33-15.31-12.5-32.12-15.62-49.17-.19-1.02-.02-2.11-.02-3.55.96.47 1.56.56 1.76.88 10.77 18.32 26.6 31.74 43.12 44.49 20.36 15.71 43.2 25.279 68.95 27.14 10.029.73 20.14.36 30.18.93.99.061 2.02-.04 3.01-.04.95 0 1.9.011 2.851.04 1.72.051 3.439.15 5.149.341 1.521.17 3.03.399 4.521.729 1.35.29 2.689.67 4 1.15 1.229.439 2.43.979 3.59 1.6 1.14.62 2.24 1.33 3.29 2.1 1.09.811 2.12 1.7 3.1 2.641 1.061 1.01 2.061 2.09 3.03 3.2 1.058 1.23 2.068 2.5 3.058 3.8z"/><path fill="#D9582B" d="M384.368 909.817c-.351.35-.76.859-1.24 1.51-.02-.01-6.71-7.41-9.53-10.25.42-.601.86-1.2 1.261-1.811 2.459 2.391 9.219 10.221 9.509 10.551zM380.938 914.597c-1.01 1.62-2.17 3.561-3.439 5.78-1.73-2.25-8.101-10.95-9.08-12.65 1.229-1.42 2.4-2.869 3.52-4.359 2.049 1.719 7.689 8.539 8.999 11.229z"/><linearGradient id="f" gradientUnits="userSpaceOnUse" x1="202.761" y1="707.003" x2="377.107" y2="707.003"><stop offset="0" stop-color="#5E9400"/><stop offset="1" stop-color="#132A00"/></linearGradient><path fill="url(#f)" d="M311.938 699.787c50.88 14.87 66.05 48.89 65.13 48.59-20.471-6.62-5.57-8.69-64.331-15.01-29.6-3.181-44.36-10.351-58.51-18.36-32.31-18.29-52.69-49.52-51.41-49.38 5.44.62 11.55 9.33 20.81 15 8.78 5.38 14.69 7.25 24.81 10.87 5.64 2.02 19.61 5.11 28.63 5.88 12.481 1.07 25.141-.43 34.871 2.41z"/><path fill="#D9582B" d="M374.088 926.507c-1.37 2.51-2.81 5.22-4.32 8.09-.279-.01-9.55-16.6-10.229-17.8 1.8-1.63 3.55-3.31 5.22-5.05.061.08.11.16.15.26.179.52 8.969 14.2 9.179 14.5zM366.848 940.257c-1.529 2.98-3.1 6.08-4.68 9.28-.05-.08-10.8-20.36-12.85-24.42 2.43-1.79 4.81-3.66 7.119-5.61.091.11.171.24.221.37.21.58 10.09 20.3 10.19 20.38z"/><path fill="#64DD00" d="M363.998 748.167c-8.42.19-25.14-.09-47.66-2.16-25.42-2.34-66.69-25.149-63.52-24.5 11.6 2.37 28.27 17.58 63.18 18.5 36.19.95 39.95 6.26 48 8.16z"/><path fill="#D9582B" d="M359.688 954.547c-1.569 3.21-3.159 6.49-4.729 9.8-.11-.08-.22-.16-.32-.26-1.729-1.55-11.109-25.2-12.71-33.89 1.32-.851 2.62-1.721 3.92-2.61.909 4.76 10.969 20.71 13.839 26.96zM352.028 970.537c-1.82 3.899-3.62 7.81-5.36 11.67-12.57-17.83-17.8-40.96-17.88-41.23-.28-.97-.66-1.899-.641-2.779 2.91-1.511 5.86-3.141 8.811-4.9 1.29 2.419 4.81 24.169 15.07 37.239z"/><linearGradient id="g" gradientUnits="userSpaceOnUse" x1="191.504" y1="1025.563" x2="344.166" y2="1025.563"><stop offset="0" stop-color="#FF8415"/><stop offset="1" stop-color="#5E9400"/></linearGradient><path fill="url(#g)" d="M338.698 1080.646c1.93 2.57 5.899 5.591 5.43 7.561-.83 3.49-3.89 6.89-6.84 9.35-6.79 5.66-48.12 40.62-102.74 5.07-13.31-10.38-91.71-118.37 3.23-163.72 8.65-2.601 17.65-4.03 26.5-5.98 4.48-.95 6.05 2.12 7.04 5.15 5.84 17.84 11.77 35.649 17.14 53.63 5.88 19.67 13.24 38.65 25.16 55.49 8.05 11.37 16.69 22.32 25.08 33.449z"/><path fill="#D9582B" d="M343.768 987.917c.101.08.16.2.21.34-2.149 4.89-4.17 9.63-5.989 14.09-1.471-2.35-5.67-10.18-6.44-11.81-.54-1.17-17.05-44.3-17.91-46.54 2.92-.89 5.811-1.88 8.61-3.03 3.209 5.78 13.479 40.94 21.519 46.95zM334.798 1010.447c-1.2 3.18-2.25 6.13-3.12 8.779-13.63-18.189-27.22-63.75-28.92-72.1 1.52-.44 3.05-.87 4.58-1.3 3.79 7.791 17.68 50.151 27.46 64.621zM328.828 1031.967c-.34 4.46-.32 9.891.399 15.3-1.279-1.479-2.939-3.63-3.42-4.39-1.66-2.62-3.319-5.22-4.979-7.83-.94-1.479-1.86-2.97-2.771-4.46-6.67-10.89-10.27-21.55-14.65-36.8-2.95-10.3-11.15-33.76-11.35-35.29-.44-1.59-1.68-6.05-1.62-7.86 2.23-.52 4.71-1.229 6.5-1.76l6.94 24.45c4.841 16.33 12.331 34.05 24.951 58.64z"/><linearGradient id="h" gradientUnits="userSpaceOnUse" x1="222.358" y1="231.888" x2="275.911" y2="231.888"><stop offset="0" stop-color="#5E9400"/><stop offset="1" stop-color="#132A00"/></linearGradient><path fill="url(#h)" d="M260.058 118.317c.21.47 17.26 45.68 15.76 61.62-.02 6.76-.48 14.27-.64 20.45-.14 5.16-5.35 45.59-5.35 45.59 0 .35-5.52 29.59-7.01 36-2.92 12.47-33.13 141.37-33.3 141.53-.99 3.03-3.07 16.4-5.27 17.02-.46.13-.86-.09-1.13-.46-.66-.9-.63-1.71-.58-2.84l.03-.11-.06-.2c-.04-.45-.05-.7-.03-.97-.07-2-.12-3.97-.06-5.97l.03-.21c-.07-.3-.11-.59-.08-.88.85-9.08 1.32-18.3 3.32-27.15 4.35-19.22 9.7-38.2 14.41-57.33 27.72-112.53 28.18-174.01 27.72-177.78-5.5-45.13-27.25-80.75-42.13-102.03-.13-.19-10.24-17.59 7.38-40.84 1.18-1.54 3.17.51 2.13 2.12-6.14 9.5-5 34.43-.14 44.69 3.88 8.19 20.99 38.9 25 47.75z"/><path fill="#4BA500" d="M222.268 67.087c.9.89.03 2.49-1.01 1.72-1.23-.9-17.59-13.76-65.76-16.02-1.29-.06-.72-2.28.53-1.93.16.05 41.29-8.36 66.24 16.23z"/></g></svg>